<?xml version="1.0" encoding="utf-8"?>
<!-- Generator: Adobe Illustrator 26.3.1, SVG Export Plug-In . SVG Version: 6.00 Build 0)  -->
<svg version="1.1" id="Layer_1" xmlns="http://www.w3.org/2000/svg" xmlns:xlink="http://www.w3.org/1999/xlink" x="0px" y="0px"
	 viewBox="0 0 1366 768" style="enable-background:new 0 0 1366 768;" xml:space="preserve">
<style type="text/css">
	.st0{fill:#181A18;}
</style>
<g>
	<path class="st0" d="M250.6,212.2v-107h13v46.2h64.3v-46.2h13v107h-13v-48.9h-64.3v48.9L250.6,212.2L250.6,212.2z"/>
	<path class="st0" d="M356.8,212.2l44.2-107h15.3l44.3,107h-13.8l-9.9-24.8h-56.3l-10,24.8H356.8z M432.7,176.2l-24.1-57.5l-24,57.5
		H432.7z"/>
	<path class="st0" d="M490.1,105.2l68.9,87.7v-87.7h13v107h-13.6l-68.8-87.4v87.4h-13.1v-107H490.1z"/>
	<path class="st0" d="M593.9,158.7c0-31.5,24.3-55,55-55c18.9,0,35.3,9,45.7,24.3l-10.2,7.4c-8.7-12.7-20.9-19.5-35.5-19.5
		c-23.2,0-41.4,18.2-41.4,42.9s17.3,42.9,41.4,42.9c24,0,35.8-16.2,38-31.9h-38.1V158h51.6c0.1,1.2,0.2,3.2,0.2,4.9
		c0,28-19.2,51-51.8,51C617.9,213.7,593.9,189.9,593.9,158.7z"/>
	<path class="st0" d="M721.8,105.2h16.6l39.8,81.5l39.8-81.5h16.6v107h-13v-86l-38.7,78.1h-9.5l-38.7-78.1v135.4h-13V105.2H721.8z"
		/>
	<path class="st0" d="M850.5,212.2l44.2-107H910l44.3,107h-13.8l-9.9-24.8h-56.3l-10,24.8H850.5z M926.5,176.2l-24.1-57.5l-24,57.5
		H926.5z"/>
	<path class="st0" d="M983.8,105.2l68.9,87.7v-87.7h13v107H1052l-68.8-87.4v87.4h-13.1v-107H983.8z"/>
</g>
<g>
	<circle class="st0" cx="728.4" cy="283.8" r="13.6"/>
	<polygon class="st0" points="710.1,297.4 734.5,302.2 726.4,352.3 705.2,352.3 	"/>
</g>
</svg>
